# xmcd
# 
# Track frame offsets:
#	150
#	16782
#	44515
#	66370
#	90661
#	113526
#	130585
#	158699
#	177652
#	209879
#	235110
#	248426
#
# Disc length: 3452 seconds
#
# Revision: 1
# Processed by: cddbd v1.5.1PL0 Copyright (c) Steve Scherf et al.
# Submitted via: Audio-CD-Archiv 3.00.487
#
DISCID=9a0d7a0c
DTITLE=Howlin' Wolf  - Howlin' Wolf (Forever Gold)
DYEAR=1900
DGENRE=blues
TTITLE0=Shake it for me
TTITLE1=Love me
TTITLE2=Dust my broom
TTITLE3=I didn't mean to hurt your feelings
TTITLE4=Rockin' the blues
TTITLE5=All my life
TTITLE6=Going down slow
TTITLE7=Howlin' for my darlin'
TTITLE8=Forty-Four
TTITLE9=Little red rooster
TTITLE10=Worried about you
TTITLE11=Build for comfort
EXTD=
EXTT0=
EXTT1=
EXTT2=
EXTT3=
EXTT4=
EXTT5=
EXTT6=
EXTT7=
EXTT8=
EXTT9=
EXTT10=
EXTT11=
PLAYORDER=
